<svg xmlns="http://www.w3.org/2000/svg" width="29.353" height="29.359" viewBox="0 0 29.353 29.359"><g id="Clock_Icon" data-name="Clock Icon" transform="translate(1508.167 -617.43)"><g id="Group_21" data-name="Group 21" transform="translate(-1508.167 617.43)"><path id="Path_63" data-name="Path 63" d="M-1494.262,617.43h1.54c.085.017.169.039.254.051.63.085,1.269.125,1.889.258a14.5,14.5,0,0,1,9.305,6.281,14.065,14.065,0,0,1,2.31,6.194c.06.48.1.963.151,1.444v1.168c-.07.56-.115,1.124-.214,1.678a14.387,14.387,0,0,1-6.994,10.206,14.124,14.124,0,0,1-10.182,1.81,14.328,14.328,0,0,1-8.624-5.108,14.292,14.292,0,0,1-3.2-7.363,14.306,14.306,0,0,1,.362-5.757,14.506,14.506,0,0,1,5.26-7.822,14.257,14.257,0,0,1,6.968-2.887Zm-.274,10.457c0,1.362.006,2.724,0,4.085a1.307,1.307,0,0,0,.414.991q2.5,2.489,4.99,4.99a2.521,2.521,0,0,0,.256.23,1.023,1.023,0,0,0,1.487-.25,1.049,1.049,0,0,0-.207-1.41q-2.323-2.329-4.652-4.652a.623.623,0,0,1-.2-.486q.01-3.794,0-7.587a1.041,1.041,0,0,0-1.047-1.121,1.079,1.079,0,0,0-1.048,1.125C-1494.515,625.162-1494.536,626.525-1494.536,627.886Z" transform="translate(1508.167 -617.43)" fill="#dcbf34"></path></g></g></svg>