<svg xmlns="http://www.w3.org/2000/svg" width="25.395" height="18.394" viewBox="0 0 25.395 18.394"><g id="Email_Icon" data-name="Email Icon" transform="translate(1422.532 1429.46)"><g id="Group_214" data-name="Group 214" transform="translate(-1422.532 -1429.46)"><path id="Path_5995" data-name="Path 5995" d="M-1380.919-1166.425h-22.2l-.837-.267,7.66-7.637s.035.03.062.06l1.842,2.01a3.184,3.184,0,0,0,3.964.63,5.218,5.218,0,0,0,1.221-1.113c.495-.537.987-1.076,1.459-1.591l7.664,7.64Z" transform="translate(1404.717 1184.818)" fill="#fff"></path><path id="Path_5996" data-name="Path 5996" d="M-1422.532-1396.118l.072-.219,7.562,8.254-7.538,7.529-.1-.351Z" transform="translate(1422.532 1397.698)" fill="#fff"></path><path id="Path_5997" data-name="Path 5997" d="M-1406.6-1429.069a1.653,1.653,0,0,1,.875-.37,3.755,3.755,0,0,1,.409-.018q10.76,0,21.521,0a1.891,1.891,0,0,1,1.281.394c-.139.154-.272.305-.408.454q-5,5.459-10,10.921a2.164,2.164,0,0,1-3.277,0q-5.142-5.648-10.314-11.27C-1406.531-1428.991-1406.557-1429.023-1406.6-1429.069Z" transform="translate(1407.251 1429.46)" fill="#fff"></path><path id="Path_5998" data-name="Path 5998" d="M-989.682-1387.934l7.53-8.22c.113.375.088,15.429,0,15.739Z" transform="translate(1007.471 1397.523)" fill="#fff"></path></g></g></svg>