<svg xmlns="http://www.w3.org/2000/svg" xmlns:xlink="http://www.w3.org/1999/xlink" id="Log_Out_Icon" data-name="Log Out Icon" width="26.57" height="27.45" viewBox="0 0 26.57 27.45"><defs><clipPath id="clip-path"><rect id="Rectangle_6" data-name="Rectangle 6" width="26.57" height="27.45" fill="#d6b92f"></rect></clipPath></defs><g id="Group_3" data-name="Group 3" clip-path="url(#clip-path)"><path id="Path_4" data-name="Path 4" d="M12.413,107.572a1.235,1.235,0,0,1-.847-2.125l1.748-1.817.91-.946h-7.8l-5.051,0A1.218,1.218,0,0,1,.01,101.592a1.209,1.209,0,0,1,1.053-1.335c.121-.012.251-.013.4-.013H14.164l-.89-.942-.526-.559c-.4-.432-.787-.84-1.187-1.251a1.2,1.2,0,0,1-.342-1.253,1.231,1.231,0,0,1,1.182-.9,1.062,1.062,0,0,1,.738.292c1.6,1.506,3.022,2.909,4.336,4.29a2.294,2.294,0,0,1-.047,3.141c-1.405,1.457-2.843,2.859-4.194,4.169a1.178,1.178,0,0,1-.821.339" transform="translate(0 -87.73)" fill="#d6b92f"></path><path id="Path_5" data-name="Path 5" d="M29.919,27.45A13.349,13.349,0,0,1,19.063,21.9a1.319,1.319,0,0,1-.262-1.221,1.2,1.2,0,0,1,.833-.782,1.265,1.265,0,0,1,.357-.054,1.309,1.309,0,0,1,1.025.586,11.271,11.271,0,0,0,4.836,3.745A11.122,11.122,0,0,0,30.059,25a11.362,11.362,0,0,0,7.253-2.639A11.113,11.113,0,0,0,41.2,15.479,11.351,11.351,0,0,0,39.208,7.1a11.041,11.041,0,0,0-7.314-4.48,13.032,13.032,0,0,0-2.008-.161,10.887,10.887,0,0,0-8.8,4.484,1.472,1.472,0,0,1-1.112.67,1.184,1.184,0,0,1-.3-.042,1.213,1.213,0,0,1-.853-.769,1.274,1.274,0,0,1,.2-1.188,13.49,13.49,0,0,1,6.5-4.827A13.665,13.665,0,0,1,30.054,0a13.431,13.431,0,0,1,10.4,5.086A13.879,13.879,0,0,1,43.709,12.2l.109.78v1.589c-.04.246-.076.494-.112.735-.082.56-.16,1.089-.28,1.614a13.507,13.507,0,0,1-4.009,6.913,13.215,13.215,0,0,1-7.18,3.457,16.76,16.76,0,0,1-2.318.167" transform="translate(-17.248)" fill="#d6b92f"></path><path id="Path_6" data-name="Path 6" d="M12.413,107.572a1.235,1.235,0,0,1-.847-2.125l1.748-1.817.91-.946h-7.8l-5.051,0A1.218,1.218,0,0,1,.01,101.592a1.209,1.209,0,0,1,1.053-1.335c.121-.012.251-.013.4-.013H14.164l-.89-.942-.526-.559c-.4-.432-.787-.84-1.187-1.251a1.2,1.2,0,0,1-.342-1.253,1.231,1.231,0,0,1,1.182-.9,1.062,1.062,0,0,1,.738.292c1.6,1.506,3.022,2.909,4.336,4.29a2.294,2.294,0,0,1-.047,3.141c-1.405,1.457-2.843,2.859-4.194,4.169a1.178,1.178,0,0,1-.821.339" transform="translate(0 -87.73)" fill="#d6b92f"></path></g></svg>