<svg xmlns="http://www.w3.org/2000/svg" xmlns:xlink="http://www.w3.org/1999/xlink" id="Log_in_Logo" data-name="Log in Logo" width="210.287" height="87.238" viewBox="0 0 210.287 87.238"><defs><clipPath id="clip-path"><rect id="Rectangle_84" data-name="Rectangle 84" width="210.287" height="87.238" fill="none"></rect></clipPath></defs><g id="Group_253" data-name="Group 253" clip-path="url(#clip-path)"><path id="Path_6007" data-name="Path 6007" d="M38.825,99.491,2.909,84.358C1.3,83.681,0,84.64,0,86.5v49.431l8.147,3.432V120.736c0-1.491,1.044-2.26,2.332-1.717l20.127,8.48a5.456,5.456,0,0,1,2.982,4.708v17.876l8.147,3.432V133.322a6.262,6.262,0,0,0-1.012-3.256l-2.313-3.652c-.41-.647-.41-1.417,0-1.719l2.313-1.7a2.888,2.888,0,0,0,1.012-2.4v-16.5a5.323,5.323,0,0,0-2.909-4.594m-5.237,16.867c0,1.623-1.136,2.46-2.539,1.869l-21.017-8.855A3.45,3.45,0,0,1,8.147,106.4V98.178c0-1.205.844-1.827,1.885-1.388l21.017,8.855a4.644,4.644,0,0,1,2.539,4.008Z" transform="translate(0 -66.277)" fill="#1d1d19"></path><path id="Path_6008" data-name="Path 6008" d="M466.471,83.5V69.383c0-1.774-.248-5.534-.355-6.386h9.969c5.711,0,8.691,3.122,8.691,7.663,0,3.8-1.88,6.563-5.25,7.627,2.59,3.406,5.924,8.337,6.634,9.117v.5c-1.632,0-6.208.177-7.8.213L473,78.784h-.142v2.732c0,1.6.284,5.605.391,6.386-2.093,0-5.57.142-6.882.213.035-.958.106-3.3.106-4.612m9.26-9.685a2.778,2.778,0,0,0,2.98-2.945,2.977,2.977,0,0,0-3.264-2.909h-2.59v5.854Z" transform="translate(-367.155 -49.622)" fill="#1d1d19"></path><path id="Path_6009" data-name="Path 6009" d="M570.719,62.207c2.377.036,4.4-.071,6.421-.213V76.4c0,3.69,1.526,5.392,3.938,5.392,2.271,0,3.832-1.7,3.832-5.215V62.207a55.368,55.368,0,0,0,6.421-.213V76.717c0,7.663-4.4,10.607-10.43,10.607-5.889,0-10.182-2.483-10.182-10Z" transform="translate(-449.55 -48.832)" fill="#1d1d19"></path><path id="Path_6010" data-name="Path 6010" d="M687.541,83.5V69.383c0-1.774-.248-5.534-.355-6.386h9.969c5.711,0,8.691,3.122,8.691,7.663,0,3.8-1.88,6.563-5.25,7.627,2.59,3.406,5.924,8.337,6.634,9.117v.5c-1.632,0-6.208.177-7.8.213l-5.357-9.33h-.142v2.732c0,1.6.284,5.605.391,6.386-2.093,0-5.57.142-6.882.213.035-.958.106-3.3.106-4.612m9.259-9.685a2.778,2.778,0,0,0,2.98-2.945,2.977,2.977,0,0,0-3.264-2.909h-2.59v5.854Z" transform="translate(-541.289 -49.622)" fill="#1d1d19"></path><path id="Path_6011" data-name="Path 6011" d="M799.911,87.982c-.461-1.632-.958-3.263-1.419-4.931-1.49-.035-2.909-.035-4.222-.035s-2.484,0-3.335.035l-1.313,4.718c-2.412.036-4.612.107-7.024.213,2.554-7.06,6.563-19.37,8.408-25.152,1.313.035,2.59.071,3.9.071s2.625-.036,3.938-.071c3.583,11.672,6.6,20.044,8.372,24.94-2.412.036-4.86.107-7.308.213M794.7,68.293l-2.448,9.756c.6-.036,1.241-.036,1.844-.036,1.206,0,2.341.036,3.051.036Z" transform="translate(-616.445 -49.491)" fill="#1d1d19"></path><path id="Path_6012" data-name="Path 6012" d="M909.111,68.593c0-1.774-.248-5.534-.355-6.386l6.882-.213c-.071,1.525-.107,3.086-.107,4.612V82.039c1.277.035,2.483.035,3.725.035,1.951,0,3.867-.035,5.783-.142a21.329,21.329,0,0,0-.39,4.009c0,.426,0,.852.035,1.277-4.009-.142-7.414-.071-11.211-.071-2.2.035-4.364.177-4.47.177,0-.142.107-3.3.107-4.612Z" transform="translate(-715.818 -48.833)" fill="#1d1d19"></path><path id="Path_6013" data-name="Path 6013" d="M467.816,227.015V212.9c0-1.774-.248-5.534-.355-6.386h9.969c5.711,0,8.691,3.122,8.691,7.663,0,3.8-1.88,6.563-5.25,7.627,2.59,3.406,5.925,8.337,6.634,9.117v.5c-1.632,0-6.208.177-7.8.213l-5.357-9.33H474.2v2.732c0,1.6.284,5.605.39,6.386-2.093,0-5.57.142-6.882.213.035-.958.106-3.3.106-4.612m9.259-9.685a2.778,2.778,0,0,0,2.98-2.945,2.977,2.977,0,0,0-3.264-2.909H474.2v5.854Z" transform="translate(-368.214 -162.666)" fill="#1d1d19"></path><path id="Path_6014" data-name="Path 6014" d="M576.323,230.838c-6.634,0-11.778-3.9-11.778-12.559,0-8.124,5.25-12.771,11.884-12.771,6.67,0,11.778,3.9,11.778,12.594,0,8.124-5.25,12.736-11.885,12.736m.071-20.15c-3.264,0-5.109,3.228-5.109,7.414,0,4.328,1.916,7.592,5.144,7.592s5.25-3.228,5.25-7.415c0-4.328-2.057-7.592-5.286-7.592" transform="translate(-444.686 -161.877)" fill="#1d1d19"></path><path id="Path_6015" data-name="Path 6015" d="M690.37,205.721c2.377.036,4.4-.071,6.421-.213v14.4c0,3.69,1.526,5.392,3.938,5.392,2.27,0,3.832-1.7,3.832-5.215V205.721a55.46,55.46,0,0,0,6.421-.213v14.723c0,7.663-4.4,10.607-10.43,10.607-5.889,0-10.182-2.483-10.182-10Z" transform="translate(-543.797 -161.877)" fill="#1d1d19"></path><path id="Path_6016" data-name="Path 6016" d="M806.34,212.161h-7.024a43.337,43.337,0,0,0,.248-5.818c4.718.142,16.426.106,20.434,0a52.039,52.039,0,0,0-.319,5.818c-1.6-.036-4.186,0-6.882,0V224.9c0,1.49.107,5.392.142,6.386-2.7,0-5.534.142-6.7.213.035-.887.107-3.3.107-4.612Z" transform="translate(-629.613 -162.534)" fill="#1d1d19"></path><path id="Path_6017" data-name="Path 6017" d="M907.281,213.073c0-1.774-.248-5.712-.354-6.563h17.312a44.447,44.447,0,0,0-.39,5.357,65.611,65.611,0,0,0-6.6-.177l-3.547.071v4.577c2.661,0,5.286,0,8.408-.142a24.864,24.864,0,0,0-.142,2.767,24.615,24.615,0,0,0,.142,2.7c-1.49-.071-2.909-.106-4.293-.106s-2.767.035-4.115.071v4.683c1.7.036,3.37.071,5,.071,1.809,0,3.619-.035,5.428-.142a21.331,21.331,0,0,0-.319,4.009c0,.426,0,.781.036,1.207q-3.14-.107-6.279-.107c-3.477,0-6.847-.035-10.43.213.071-.745.142-3.051.142-4.363Z" transform="translate(-714.377 -162.666)" fill="#1d1d19"></path><path id="Path_6018" data-name="Path 6018" d="M24.256,44.8,10.063,50a.431.431,0,0,0-.012.783L50.211,67.2,65.37,61Z" transform="translate(-7.724 -35.289)" fill="#fff"></path><path id="Path_6019" data-name="Path 6019" d="M193.6,14.713,153.454,0,140.876,4.609l41.179,15.612L193.615,15.5a.431.431,0,0,0-.012-.783" transform="translate(-110.967)" fill="#fff"></path><path id="Path_6020" data-name="Path 6020" d="M247.256,106.261a6.261,6.261,0,0,0,1.013-3.256V86.5c0-1.86-1.3-2.819-2.909-2.142L233.9,89.187v4.581l-12.844,5.469V94.6l-11.611,4.892a5.323,5.323,0,0,0-2.909,4.594v49.43l8.147-3.432V131.455a4.267,4.267,0,0,1,2.332-3.683l20.127-8.48c1.647-.694,2.982.289,2.982,2.2v17.876l8.147-3.433V115.738a2.888,2.888,0,0,0-1.013-2.4l-2.313-1.7c-.41-.3-.41-1.071,0-1.718Zm-7.134-.622a4.644,4.644,0,0,1-2.539,4.008L216.566,118.5c-1.041.439-1.885-.183-1.885-1.388V108.9a3.449,3.449,0,0,1,1.885-2.977l21.017-8.855c1.4-.591,2.538.246,2.538,1.869Z" transform="translate(-162.685 -66.277)" fill="#1d1d19"></path><path id="Path_6021" data-name="Path 6021" d="M467.538,356.215c0-.422-.059-1.318-.084-1.52h2.373A1.831,1.831,0,0,1,471.9,356.6a1.915,1.915,0,0,1-2.069,2.018h-.769v.482c0,.38.068,1.334.093,1.52-.65,0-1.613.051-1.638.051.008-.38.025-.785.025-1.1Zm2.2,1.225a.728.728,0,0,0,.71-.785.749.749,0,0,0-.777-.777h-.617v1.562Z" transform="translate(-368.209 -279.39)" fill="#fff"></path><path id="Path_6022" data-name="Path 6022" d="M496.082,360.644c-.11-.388-.228-.777-.338-1.174-.355-.008-.693-.008-1.005-.008s-.591,0-.794.008l-.312,1.123c-.575.009-1.1.025-1.672.051.608-1.681,1.562-4.611,2-5.988.313.008.617.017.929.017s.625-.008.938-.017c.853,2.778,1.571,4.772,1.993,5.937-.574.009-1.157.025-1.74.051m-1.242-4.687-.583,2.322c.144-.008.3-.008.439-.008.287,0,.558.008.726.008Z" transform="translate(-387.512 -279.359)" fill="#fff"></path><path id="Path_6023" data-name="Path 6023" d="M528.535,354.457a3.81,3.81,0,0,1,1.748.389,6.834,6.834,0,0,0-.456,1.284l-.051.017a1.826,1.826,0,0,0-1.123-.346,1.481,1.481,0,0,0-1.529,1.664,1.5,1.5,0,0,0,1.571,1.706,2.5,2.5,0,0,0,1.2-.3,3.249,3.249,0,0,0,.388,1.115,3.112,3.112,0,0,1-1.815.507,2.658,2.658,0,0,1-2.931-2.914,2.84,2.84,0,0,1,3-3.116" transform="translate(-413.96 -279.202)" fill="#fff"></path><path id="Path_6024" data-name="Path 6024" d="M556.93,356.028c0-.422-.059-1.318-.084-1.52.616,0,1.5-.051,1.638-.051-.008.22-.025.785-.025,1.1V357.2c.414-.617,1.554-2.314,1.74-2.694.591,0,1.191.017,1.782-.034v.059l-1.993,2.787c.3.422,1.546,2.23,2.12,3v.118c-.388,0-1.284.034-1.774.051-.464-.7-1.41-2.12-1.875-2.829v1.258c0,.423.051,1.318.076,1.52-.651,0-1.6.051-1.63.051,0-.017.025-.785.025-1.1Z" transform="translate(-438.622 -279.202)" fill="#fff"></path><path id="Path_6025" data-name="Path 6025" d="M591.321,360.644c-.11-.388-.228-.777-.338-1.174-.355-.008-.693-.008-1.005-.008s-.591,0-.794.008l-.312,1.123c-.575.009-1.1.025-1.672.051.608-1.681,1.562-4.611,2-5.988.313.008.617.017.929.017s.625-.008.938-.017c.853,2.778,1.571,4.772,1.993,5.937-.574.009-1.157.025-1.74.051m-1.242-4.687-.583,2.322c.144-.008.3-.008.439-.008.287,0,.557.008.726.008Z" transform="translate(-462.531 -279.359)" fill="#fff"></path><path id="Path_6026" data-name="Path 6026" d="M624.1,359.271h.194c-.009-.625-.059-1.377-.076-1.554.642,0,1.588-.034,1.63-.051-.017.161-.025.693-.025,1.183,0,.659,0,.988.025,1.191a4.87,4.87,0,0,1-2.078.448,2.731,2.731,0,0,1-3-2.914,2.9,2.9,0,0,1,3.083-3.116,4.182,4.182,0,0,1,1.833.389,6.624,6.624,0,0,0-.456,1.284l-.051.017a2.16,2.16,0,0,0-1.267-.338,1.58,1.58,0,0,0-1.545,1.74,1.522,1.522,0,0,0,1.731,1.723" transform="translate(-488.978 -279.202)" fill="#fff"></path><path id="Path_6027" data-name="Path 6027" d="M654.078,356.257c0-.422-.059-1.36-.084-1.562h4.121a10.535,10.535,0,0,0-.093,1.275,15.669,15.669,0,0,0-1.571-.042l-.845.017v1.09c.634,0,1.258,0,2-.034a6.28,6.28,0,0,0,0,1.3c-.355-.017-.693-.025-1.022-.025s-.659.008-.98.017v1.115c.405.008.8.017,1.191.017.431,0,.861-.008,1.292-.034a5.067,5.067,0,0,0-.076.954c0,.1,0,.186.008.287q-.747-.026-1.495-.025c-.828,0-1.63-.008-2.483.051.017-.177.034-.726.034-1.039Z" transform="translate(-515.144 -279.39)" fill="#fff"></path><path id="Path_6028" data-name="Path 6028" d="M694.337,356.215c0-.422-.059-1.318-.084-1.52h2.373A1.831,1.831,0,0,1,698.7,356.6a1.916,1.916,0,0,1-2.069,2.018h-.768v.482c0,.38.068,1.334.093,1.52-.65,0-1.613.051-1.638.051.008-.38.025-.785.025-1.1Zm2.2,1.225a.728.728,0,0,0,.709-.785.749.749,0,0,0-.777-.777h-.617v1.562Z" transform="translate(-546.856 -279.39)" fill="#fff"></path><path id="Path_6029" data-name="Path 6029" d="M724.747,358.916c0,.422.068,1.317.093,1.52-.54,0-1.089.025-1.638.051.008-.093.017-.785.017-1.1v-3.361c0-.422-.059-1.318-.085-1.521.549,0,1.089-.017,1.647-.051,0,.093-.034.785-.034,1.1Z" transform="translate(-569.605 -279.202)" fill="#fff"></path><path id="Path_6030" data-name="Path 6030" d="M742.921,354.457a3.81,3.81,0,0,1,1.748.389,6.851,6.851,0,0,0-.456,1.284l-.051.017a1.827,1.827,0,0,0-1.123-.346,1.481,1.481,0,0,0-1.529,1.664,1.5,1.5,0,0,0,1.571,1.706,2.5,2.5,0,0,0,1.2-.3,3.246,3.246,0,0,0,.388,1.115,3.112,3.112,0,0,1-1.815.507,2.658,2.658,0,0,1-2.931-2.914,2.84,2.84,0,0,1,3-3.116" transform="translate(-582.83 -279.202)" fill="#fff"></path><path id="Path_6031" data-name="Path 6031" d="M771.315,356.028c0-.422-.059-1.318-.084-1.52.616,0,1.5-.051,1.638-.051-.009.22-.025.785-.025,1.1V357.2c.414-.617,1.554-2.314,1.74-2.694.591,0,1.191.017,1.782-.034v.059l-1.993,2.787c.3.422,1.546,2.23,2.12,3v.118c-.389,0-1.284.034-1.774.051-.464-.7-1.41-2.12-1.875-2.829v1.258c0,.423.05,1.318.076,1.52-.651,0-1.6.051-1.63.051,0-.017.025-.785.025-1.1Z" transform="translate(-607.491 -279.202)" fill="#fff"></path><rect id="Rectangle_83" data-name="Rectangle 83" width="2.441" height="1.031" transform="translate(170.733 77.51)" fill="#fff"></rect><path id="Path_6032" data-name="Path 6032" d="M826.011,354.508c.566.008,1.047-.017,1.529-.051v3.429c0,.879.363,1.284.937,1.284.541,0,.912-.405.912-1.242v-3.421a13.187,13.187,0,0,0,1.529-.051v3.505a2.243,2.243,0,0,1-2.483,2.525,2.124,2.124,0,0,1-2.424-2.382Z" transform="translate(-650.641 -279.202)" fill="#fff"></path><path id="Path_6033" data-name="Path 6033" d="M859.154,356.215c0-.422-.059-1.318-.084-1.52h2.373a1.831,1.831,0,0,1,2.069,1.909,1.916,1.916,0,0,1-2.069,2.018h-.769v.482c0,.38.068,1.334.093,1.52-.65,0-1.613.051-1.638.051.008-.38.025-.785.025-1.1Zm2.2,1.225a.728.728,0,0,0,.709-.785.749.749,0,0,0-.777-.777h-.617v1.562Z" transform="translate(-676.681 -279.39)" fill="#fff"></path><path id="Path_6034" data-name="Path 6034" d="M901.9,358.916c0,.422.068,1.317.093,1.52-.54,0-1.089.025-1.638.051.008-.093.017-.785.017-1.1v-3.361c0-.422-.059-1.318-.085-1.521.549,0,1.089-.017,1.647-.051,0,.093-.034.785-.034,1.1Z" transform="translate(-709.144 -279.202)" fill="#fff"></path><path id="Path_6035" data-name="Path 6035" d="M918.35,356.028c0-.422-.059-1.318-.084-1.52.642,0,1.36-.042,1.638-.051l2.382,3.851-.076-2.289c-.017-.422-.059-1.318-.085-1.52.642,0,1.487-.042,1.647-.042-.009.169-.026.777-.026,1.089v3.361c0,.422.026,1.326.051,1.529l-1.8.051c-.532-1.089-1.486-2.5-2.12-3.53v1.959c0,.423.068,1.318.093,1.52-.65,0-1.351.034-1.647.051.009-.3.025-.785.025-1.1Z" transform="translate(-723.309 -279.202)" fill="#fff"></path><path id="Path_6036" data-name="Path 6036" d="M956.073,354.457a3.81,3.81,0,0,1,1.748.389,6.838,6.838,0,0,0-.456,1.284l-.051.017a1.826,1.826,0,0,0-1.123-.346,1.481,1.481,0,0,0-1.529,1.664,1.5,1.5,0,0,0,1.571,1.706,2.5,2.5,0,0,0,1.2-.3,3.253,3.253,0,0,0,.388,1.115,3.112,3.112,0,0,1-1.815.507,2.658,2.658,0,0,1-2.931-2.914,2.84,2.84,0,0,1,3-3.116" transform="translate(-750.727 -279.202)" fill="#fff"></path><path id="Path_6037" data-name="Path 6037" d="M983.19,376.837a.776.776,0,0,1,1.545,0,.774.774,0,0,1-1.545,0" transform="translate(-774.449 -296.279)" fill="#fff"></path></g></svg>