<svg xmlns="http://www.w3.org/2000/svg" xmlns:xlink="http://www.w3.org/1999/xlink" width="24.498" height="24.498" viewBox="0 0 24.498 24.498"><defs><clipPath id="clip-path"><rect id="Rectangle_22" data-name="Rectangle 22" width="24.498" height="24.498" fill="#d6b92f"></rect></clipPath></defs><g id="Group_22" data-name="Group 22" clip-path="url(#clip-path)"><path id="Path_18" data-name="Path 18" d="M12.272,24.5c-.322,0-.661,0-1.005,0a2.123,2.123,0,0,1-2.106-2.085c0-.164,0-.334,0-.471V21.8L8.913,21.7c-.376-.164-.732-.318-1.1-.471l-.122-.051-.1.091c-.06.057-.118.116-.18.178s-.111.113-.167.167a2.132,2.132,0,0,1-1.481.605,2.11,2.11,0,0,1-1.479-.609c-.5-.488-.959-.947-1.4-1.4a2.108,2.108,0,0,1,.006-2.959c.107-.11.217-.212.321-.308l.1-.095-.108-.272c-.152-.384-.295-.745-.444-1.1l-.049-.119-.129-.007c-.088,0-.176-.006-.269-.007a4.125,4.125,0,0,1-.529-.031A2.1,2.1,0,0,1,0,13.252C0,12.675,0,12.045,0,11.268a2.121,2.121,0,0,1,2.08-2.111h.034c.07,0,.142.005.212.01s.133.009.192.009a.728.728,0,0,0,.1-.006l.111-.016.045-.1a1.716,1.716,0,0,0,.07-.221,2.045,2.045,0,0,1,.082-.258c.094-.223.192-.443.3-.677l.1-.222-.106-.1c-.094-.088-.194-.182-.294-.283a2.114,2.114,0,0,1-.006-3.034c.528-.533.956-.962,1.349-1.348a2.107,2.107,0,0,1,3,0c.055.054.106.114.155.173a1.7,1.7,0,0,0,.166.18l.093.08L7.8,3.292a1.716,1.716,0,0,0,.191-.1,2.082,2.082,0,0,1,.229-.116c.234-.094.468-.185.716-.281L9.176,2.7l-.006-.17a4.263,4.263,0,0,1,.013-.662,2.091,2.091,0,0,1,1.64-1.82l.01,0,.01,0,.034-.014.005,0,.042-.018L10.951,0h2.6l.027.011.042.018,0,0,.033.014.01,0,.011,0a2.107,2.107,0,0,1,1.64,1.817,4.144,4.144,0,0,1,.021.7l-.006.156.149.046c.222.069.438.158.646.244l.131.054a2.13,2.13,0,0,1,.234.119,1.636,1.636,0,0,0,.214.108l.109.04.09-.073a1.609,1.609,0,0,0,.181-.194,2.421,2.421,0,0,1,.163-.181,2.107,2.107,0,0,1,2.958,0c.471.459.943.931,1.4,1.4a2.118,2.118,0,0,1,0,2.958c-.05.052-.1.1-.151.15-.067.065-.134.13-.194.2l-.087.1.05.119c.055.133.115.263.177.4s.115.252.169.379a1.916,1.916,0,0,1,.08.254,1.821,1.821,0,0,0,.06.2l.044.11.118.016a.763.763,0,0,0,.1.006c.057,0,.117,0,.181-.008s.136-.009.2-.009h.026a2.131,2.131,0,0,1,1.955,1.334c.04.1.073.2.1.3.015.048.029.092.044.135l.008.024v2.588l-.029.094c-.016.049-.03.1-.043.142a2.142,2.142,0,0,1-2.017,1.561c-.089,0-.177,0-.266,0h-.338l-.107.247c-.163.376-.318.731-.471,1.1l-.051.122.091.1c.058.061.117.119.18.181l0,0c.055.054.11.108.163.163a2.112,2.112,0,0,1,.01,2.941c-.5.518-.971.989-1.441,1.441a2.088,2.088,0,0,1-1.452.585,2.115,2.115,0,0,1-1.47-.594c-.114-.109-.22-.218-.337-.338l-.095-.1-.279.11c-.374.148-.728.287-1.084.435l-.117.049-.008.127c-.006.1-.007.195-.009.291a4.023,4.023,0,0,1-.031.515,2.1,2.1,0,0,1-2.052,1.781c-.315,0-.644,0-.979,0m-4.74-5.266a.976.976,0,0,1,.49.147,8.772,8.772,0,0,0,2.181.9.832.832,0,0,1,.683.881c0,.2,0,.393,0,.585v.007c0,.18,0,.366,0,.551,0,.334.126.459.453.46l.932,0,.895,0c.311,0,.439-.131.444-.446,0-.206,0-.416,0-.62v-.005c0-.172,0-.345,0-.517a.837.837,0,0,1,.693-.9,8.74,8.74,0,0,0,2.158-.893,1,1,0,0,1,.5-.154.921.921,0,0,1,.644.3c.12.118.238.237.356.356l.006.006c.147.148.3.3.447.444a.372.372,0,0,0,.61,0c.442-.434.882-.874,1.309-1.309a.37.37,0,0,0,0-.61c-.142-.147-.291-.294-.422-.424s-.269-.267-.4-.4a.854.854,0,0,1-.141-1.108,8.783,8.783,0,0,0,.909-2.205.842.842,0,0,1,.868-.667l.324,0H22l.327,0c.318,0,.443-.129.445-.444,0-.625,0-1.258,0-1.8,0-.355-.124-.475-.487-.477H21.19a.855.855,0,0,1-.9-.689A8.617,8.617,0,0,0,19.4,8.036a.868.868,0,0,1,.158-1.169c.1-.106.21-.21.315-.315l.008-.008c.145-.144.31-.308.464-.467a.373.373,0,0,0,0-.61c-.416-.424-.857-.865-1.309-1.31a.462.462,0,0,0-.3-.161.5.5,0,0,0-.322.173c-.127.124-.253.252-.375.375l-.006.006c-.14.141-.284.286-.429.427a.893.893,0,0,1-.628.282.956.956,0,0,1-.48-.141,8.7,8.7,0,0,0-2.2-.91.841.841,0,0,1-.67-.867c0-.18,0-.36,0-.535,0-.215,0-.438,0-.658a.37.37,0,0,0-.421-.418l-.365,0H11.39a.553.553,0,0,0-.4.1.581.581,0,0,0-.1.408c0,.145,0,.289,0,.434,0,.213,0,.423,0,.634a.846.846,0,0,1-.71.91A8.686,8.686,0,0,0,8.042,5.1a1,1,0,0,1-.51.157.92.92,0,0,1-.66-.313q-.183-.181-.364-.363L6.5,4.578c-.134-.134-.268-.269-.4-.4A.5.5,0,0,0,5.771,4a.479.479,0,0,0-.316.172c-.471.465-.893.888-1.292,1.292a.379.379,0,0,0,.006.627c.142.145.292.295.424.426s.244.242.364.365a.872.872,0,0,1,.156,1.149,8.75,8.75,0,0,0-.894,2.158.84.84,0,0,1-.893.7H2.519c-.12,0-.24,0-.36,0-.3,0-.425.135-.426.436,0,.528,0,1.109,0,1.828,0,.331.124.456.454.459H3.329a.848.848,0,0,1,.886.677,8.714,8.714,0,0,0,.9,2.182A.869.869,0,0,1,4.974,17.6c-.138.142-.279.282-.415.417s-.262.26-.392.393a.376.376,0,0,0,0,.627c.412.419.847.853,1.292,1.292a.484.484,0,0,0,.317.17.478.478,0,0,0,.311-.165c.147-.143.293-.29.435-.432.122-.122.247-.249.375-.374a.909.909,0,0,1,.638-.3" transform="translate(0)" fill="#d6b92f"></path><path id="Path_19" data-name="Path 19" d="M124.183,130.37a6.2,6.2,0,1,1,.012,0Zm-.2-10.756a4.514,4.514,0,1,0,.408,0v-.158h-.407Z" transform="translate(-111.933 -111.878)" fill="#d6b92f"></path></g></svg>