<svg xmlns="http://www.w3.org/2000/svg" xmlns:xlink="http://www.w3.org/1999/xlink" id="Payment_Method_Icon" data-name="Payment Method Icon" width="29.247" height="22.36" viewBox="0 0 29.247 22.36"><defs><clipPath id="clip-path"><rect id="Rectangle_72" data-name="Rectangle 72" width="29.247" height="22.36" fill="#d6b92f" stroke="#d6b92f" stroke-width="0.25"></rect></clipPath></defs><g id="Group_242" data-name="Group 242" clip-path="url(#clip-path)"><path id="Path_5999" data-name="Path 5999" d="M29.247,2.018V20.346a.217.217,0,0,0-.038.059,2.349,2.349,0,0,1-2.457,1.954q-12.135,0-24.271,0A2.356,2.356,0,0,1,0,19.881q0-5.41,0-10.819,0-3.3,0-6.6a2.387,2.387,0,0,1,.4-1.4A2.412,2.412,0,0,1,2.531,0Q14.642.009,26.753,0c.089,0,.179,0,.268.006a2.353,2.353,0,0,1,2.134,1.713c.028.1.061.2.092.3M27.787,9.251H1.465v.284q0,5.142,0,10.283c0,.74.332,1.075,1.066,1.075h24.2a.922.922,0,0,0,1.058-1.056q0-5.154,0-10.308V9.251m-.007-4.475c0-.845,0-1.665,0-2.484a.52.52,0,0,0-.021-.119.919.919,0,0,0-1.025-.7H2.537c-.049,0-.1,0-.146,0a.893.893,0,0,0-.928.941c0,.6,0,1.2,0,1.8v.562Z" transform="translate(0 0)" fill="#d6b92f" stroke="#d6b92f" stroke-width="0.25"></path><path id="Path_6000" data-name="Path 6000" d="M78.573,237.869q-2.667,0-5.335,0a.641.641,0,0,1-.7-.711.625.625,0,0,1,.542-.57,2.179,2.179,0,0,1,.292-.012H83.746a2,2,0,0,1,.316.016.637.637,0,0,1,.528.636.645.645,0,0,1-.56.635,2.341,2.341,0,0,1-.268.006H78.573" transform="translate(-68.991 -225.025)" fill="#d6b92f" stroke="#d6b92f" stroke-width="0.25"></path><path id="Path_6001" data-name="Path 6001" d="M75.857,297.759c-.893,0-1.787,0-2.68,0a.644.644,0,0,1-.239-1.24.983.983,0,0,1,.333-.05q2.607,0,5.214,0a.651.651,0,1,1,0,1.292q-1.316,0-2.631,0" transform="translate(-68.997 -281.99)" fill="#d6b92f" stroke="#d6b92f" stroke-width="0.25"></path></g></svg>