<svg xmlns="http://www.w3.org/2000/svg" width="21.168" height="21.193" viewBox="0 0 21.168 21.193"><g id="Phone_Icon" data-name="Phone Icon" transform="translate(-4076.598 -1229.563)"><g id="Group_212" data-name="Group 212" transform="translate(4076.598 1229.564)"><path id="Path_5994" data-name="Path 5994" d="M4094.474,1250.757c-.331-.071-.807-.152-1.272-.276a22.917,22.917,0,0,1-16.528-17.114,2.928,2.928,0,0,1,2.569-3.577c.7-.075,1.408-.147,2.112-.212a1.818,1.818,0,0,1,2.177,1.636c.03.153.049.31.093.459.242.82.433,1.661.749,2.451a1.839,1.839,0,0,1-1.37,2.541.914.914,0,0,0-.651,1.5,19.659,19.659,0,0,0,5.241,5.768c.528.386,1.086.734,1.641,1.081a.89.89,0,0,0,1.438-.628,2.528,2.528,0,0,1,.381-.889,1.745,1.745,0,0,1,2.025-.57c.791.26,1.584.512,2.383.747.377.111.777.145,1.151.264a1.649,1.649,0,0,1,1.152,1.57c-.013.684-.1,1.366-.159,2.049a4.012,4.012,0,0,1-.29,1.437A3.01,3.01,0,0,1,4094.474,1250.757Z" transform="translate(-4076.598 -1229.564)" fill="#fff"></path></g></g></svg>