<svg xmlns="http://www.w3.org/2000/svg" width="27.418" height="34.581" viewBox="0 0 27.418 34.581"><g id="Shield_Icon" data-name="Shield Icon" transform="translate(-1123.643 -420.927)"><g id="Group_20" data-name="Group 20" transform="translate(1123.643 420.927)"><path id="Path_62" data-name="Path 62" d="M1137.819,455.508h-.7a6.287,6.287,0,0,1-.97-.361c-1.756-1-3.566-1.916-5.234-3.044a15.6,15.6,0,0,1-7.215-12.957c-.122-3.459-.008-6.926-.041-10.388a3.047,3.047,0,0,1,2.049-3.108q5.194-2.2,10.368-4.441a3.156,3.156,0,0,1,2.492-.047c3.431,1.309,6.87,2.6,10.305,3.9a2.989,2.989,0,0,1,2.184,3.186c0,3.3.009,6.606-.006,9.909a19.619,19.619,0,0,1-.135,2.35,15.8,15.8,0,0,1-6.464,11.134,50.47,50.47,0,0,1-4.353,2.733C1139.373,454.8,1138.582,455.132,1137.819,455.508Zm-2.575-14.68c-.14-.1-.258-.186-.373-.273-.891-.678-1.767-1.377-2.676-2.028a1.684,1.684,0,0,0-2.005,2.707q2.15,1.712,4.315,3.4a1.668,1.668,0,0,0,2.522-.34q3.819-5.339,7.615-10.694a1.814,1.814,0,0,0,.377-1.518,1.7,1.7,0,0,0-3.012-.649q-2,2.756-3.977,5.521Z" transform="translate(-1123.643 -420.927)" fill="#dcbf34"></path></g></g></svg>