<svg xmlns="http://www.w3.org/2000/svg" width="28.127" height="32.08" viewBox="0 0 28.127 32.08"><g id="Snowflake_Icon" data-name="Snowflake Icon" transform="translate(1712.827 487.421)"><g id="Group_22" data-name="Group 22" transform="translate(-1712.827 -487.421)"><path id="Path_64" data-name="Path 64" d="M-1688.96-478.525c.789-.455,1.526-.886,2.267-1.307a1.289,1.289,0,0,1,1.7.261,1.277,1.277,0,0,1-.347,1.924c-.686.416-1.387.806-2.081,1.208-.068.039-.135.081-.234.141.105.066.189.122.277.172.686.4,1.377.787,2.059,1.193a1.219,1.219,0,0,1,.6,1.287,1.185,1.185,0,0,1-.773.993,1.3,1.3,0,0,1-1.213-.117c-1.1-.644-2.214-1.276-3.317-1.922a.366.366,0,0,0-.428,0q-1.275.752-2.564,1.481a.349.349,0,0,0-.2.354q.012,1.483,0,2.966a.332.332,0,0,0,.186.337q1.3.737,2.587,1.495a.343.343,0,0,0,.4,0q1.687-.99,3.388-1.958a1.281,1.281,0,0,1,1.848.584,1.279,1.279,0,0,1-.564,1.642c-.661.389-1.328.768-1.991,1.152-.091.052-.179.108-.3.179.36.21.692.4,1.025.6.427.247.859.486,1.282.741a1.277,1.277,0,0,1,.475,1.768,1.272,1.272,0,0,1-1.748.461c-.67-.372-1.329-.764-1.994-1.147-.1-.056-.2-.108-.337-.184v.284c0,.785,0,1.571,0,2.357a1.279,1.279,0,0,1-1.291,1.322,1.273,1.273,0,0,1-1.275-1.309c-.005-1.289-.007-2.577,0-3.866a.426.426,0,0,0-.255-.432c-.853-.479-1.7-.971-2.543-1.465a.3.3,0,0,0-.355-.009q-1.3.763-2.611,1.507a.329.329,0,0,0-.193.331q.012,1.5,0,2.992a.349.349,0,0,0,.212.349q1.688.963,3.368,1.941a1.274,1.274,0,0,1,.654,1.385,1.279,1.279,0,0,1-1.052,1.02,1.314,1.314,0,0,1-.911-.191q-1.019-.589-2.039-1.175c-.059-.034-.121-.064-.227-.119,0,.127,0,.218,0,.309,0,.8.014,1.607-.011,2.409a1.268,1.268,0,0,1-1.823,1.114,1.136,1.136,0,0,1-.716-1c-.032-.793-.02-1.588-.026-2.382,0-.131,0-.263,0-.45-.118.064-.2.1-.277.15-.687.4-1.37.8-2.063,1.186a1.219,1.219,0,0,1-1.329-.044,1.222,1.222,0,0,1-.58-1.147,1.274,1.274,0,0,1,.7-1.08c1.108-.636,2.212-1.281,3.323-1.912a.39.39,0,0,0,.228-.394c-.01-.98-.008-1.959,0-2.939a.352.352,0,0,0-.2-.357q-1.288-.73-2.564-1.481a.366.366,0,0,0-.427.008q-1.277.75-2.565,1.48a.347.347,0,0,0-.2.354q.011,1.973,0,3.945a1.257,1.257,0,0,1-1.123,1.263,1.265,1.265,0,0,1-1.4-.954,1.5,1.5,0,0,1-.037-.366c0-.777,0-1.553,0-2.33v-.3c-.117.062-.2.1-.281.148-.672.387-1.34.782-2.016,1.162a1.273,1.273,0,0,1-1.953-.949,1.212,1.212,0,0,1,.645-1.263c.751-.443,1.509-.875,2.3-1.332-.094-.059-.168-.109-.245-.154-.694-.4-1.392-.8-2.082-1.207a1.254,1.254,0,0,1-.616-1.28,1.242,1.242,0,0,1,.966-1.069,1.363,1.363,0,0,1,1.063.195c1.089.635,2.184,1.259,3.271,1.9a.387.387,0,0,0,.453,0q1.262-.748,2.54-1.47a.346.346,0,0,0,.214-.346q-.015-1.5,0-2.992a.329.329,0,0,0-.2-.33q-1.31-.745-2.61-1.508a.3.3,0,0,0-.357.01c-1.135.66-2.27,1.322-3.413,1.968a1.27,1.27,0,0,1-1.934-.979,1.222,1.222,0,0,1,.666-1.253c.67-.391,1.343-.776,2.015-1.164.083-.048.162-.1.265-.167-.783-.453-1.547-.888-2.3-1.336a1.274,1.274,0,0,1-.406-1.875,1.282,1.282,0,0,1,1.722-.331c.668.377,1.329.765,1.993,1.148.083.048.167.092.285.157.006-.112.015-.195.015-.277,0-.786,0-1.571,0-2.357a1.28,1.28,0,0,1,1.282-1.329,1.28,1.28,0,0,1,1.276,1.335c0,1.3,0,2.595,0,3.892a.347.347,0,0,0,.2.351q1.312.742,2.612,1.5a.279.279,0,0,0,.331,0q1.3-.765,2.61-1.507a.333.333,0,0,0,.2-.332q-.011-1.5,0-2.992a.351.351,0,0,0-.208-.351q-1.688-.963-3.367-1.942a1.281,1.281,0,0,1-.321-2.029,1.264,1.264,0,0,1,1.576-.209c.686.38,1.361.781,2.041,1.171.074.043.152.08.275.144v-.316c0-.741,0-1.483,0-2.224a1.33,1.33,0,0,1,.52-1.158,1.239,1.239,0,0,1,1.326-.128,1.175,1.175,0,0,1,.721,1.087c.017.8.009,1.606.011,2.409,0,.095,0,.19,0,.323.1-.048.169-.076.233-.114.7-.4,1.4-.817,2.108-1.213a1.271,1.271,0,0,1,1.641.329,1.269,1.269,0,0,1-.046,1.63,1.953,1.953,0,0,1-.459.351q-1.632.954-3.274,1.891a.346.346,0,0,0-.208.35q.013,1.5,0,2.992a.328.328,0,0,0,.2.328q1.3.739,2.587,1.495a.324.324,0,0,0,.381,0q1.289-.755,2.588-1.493a.352.352,0,0,0,.2-.355c-.007-1.28,0-2.56,0-3.839a1.29,1.29,0,0,1,1.281-1.385,1.3,1.3,0,0,1,1.286,1.384C-1688.959-480.271-1688.96-479.426-1688.96-478.525Zm-6.83,7.155c0-.5-.007-1.005,0-1.507a.323.323,0,0,0-.19-.331q-1.309-.742-2.607-1.5a.306.306,0,0,0-.358,0q-1.286.756-2.583,1.493a.344.344,0,0,0-.208.349c.009,1,.008,1.992,0,2.988a.328.328,0,0,0,.188.334q1.31.741,2.607,1.505a.3.3,0,0,0,.358-.007c.858-.5,1.718-1,2.585-1.491a.359.359,0,0,0,.208-.374C-1695.8-470.4-1695.79-470.885-1695.79-471.37Z" transform="translate(1712.827 487.421)" fill="#dcbf34"></path></g></g></svg>