<svg xmlns="http://www.w3.org/2000/svg" xmlns:xlink="http://www.w3.org/1999/xlink" id="Terms_and_Policies_Icon" data-name="Terms and Policies Icon" width="27.165" height="29.431" viewBox="0 0 27.165 29.431"><defs><clipPath id="clip-path"><rect id="Rectangle_73" data-name="Rectangle 73" width="27.165" height="29.431" fill="#d6b92f"></rect></clipPath></defs><g id="Group_244" data-name="Group 244" clip-path="url(#clip-path)"><path id="Path_6002" data-name="Path 6002" d="M13.693,0a3.926,3.926,0,0,1,1.935.959,22.194,22.194,0,0,0,9.44,4.063A2.434,2.434,0,0,1,27.16,7.517c0,1.727.008,3.454,0,5.18A16.77,16.77,0,0,1,17.07,28.116c-.8.353-1.594.7-2.387,1.062a2.519,2.519,0,0,1-2.2,0c-1.343-.627-2.739-1.163-4.017-1.9A16.451,16.451,0,0,1,.331,16.015,16.184,16.184,0,0,1,0,12.641Q0,10.106,0,7.572A2.454,2.454,0,0,1,2.178,5.009,22.167,22.167,0,0,0,11.513.975,3.939,3.939,0,0,1,13.47,0Zm11.4,10.593h-.027q0-1.518,0-3.035c0-.346-.068-.422-.4-.483A24.491,24.491,0,0,1,14.011,2.362c-.43-.329-.429-.33-.853-.005a24.555,24.555,0,0,1-10.6,4.709c-.425.079-.464.121-.464.539,0,1.689-.018,3.379.007,5.068a15.607,15.607,0,0,0,.172,2.3,14.442,14.442,0,0,0,6.8,10.26A34.094,34.094,0,0,0,13.42,27.3a.589.589,0,0,0,.416-.038c.809-.347,1.61-.712,2.415-1.066a14.5,14.5,0,0,0,5.423-4.074,14.25,14.25,0,0,0,3.32-8.075c.093-1.145.068-2.3.1-3.449" transform="translate(0.001)" fill="#d6b92f"></path><path id="Path_6003" data-name="Path 6003" d="M154.361,198.106l3.559-3.163q1-.887,2-1.774a1.045,1.045,0,1,1,1.389,1.556q-3.075,2.739-6.156,5.472a1.036,1.036,0,0,1-1.48.03q-1.675-1.335-3.345-2.677a1.046,1.046,0,1,1,1.3-1.63c.907.721,1.81,1.446,2.734,2.186" transform="translate(-141.511 -182.092)" fill="#d6b92f"></path></g></svg>