<svg xmlns="http://www.w3.org/2000/svg" xmlns:xlink="http://www.w3.org/1999/xlink" id="Group_257" data-name="Group 257" width="225.25" height="93.446" viewBox="0 0 225.25 93.446"><defs><clipPath id="clip-path"><rect id="Rectangle_92" data-name="Rectangle 92" width="225.25" height="93.446" fill="none"></rect></clipPath></defs><g id="Group_257-2" data-name="Group 257" clip-path="url(#clip-path)"><path id="Path_6039" data-name="Path 6039" d="M41.588,100.583,3.117,84.374C1.4,83.649,0,84.676,0,86.668v52.948l8.726,3.677V123.34c0-1.6,1.118-2.421,2.5-1.84l21.559,9.084a5.844,5.844,0,0,1,3.194,5.043v19.148l8.726,3.677v-21.63a6.707,6.707,0,0,0-1.084-3.488l-2.478-3.912c-.439-.693-.439-1.518,0-1.841l2.478-1.824a3.093,3.093,0,0,0,1.084-2.574V105.5a5.7,5.7,0,0,0-3.116-4.921m-5.61,18.067c0,1.738-1.217,2.635-2.719,2l-22.513-9.486a3.7,3.7,0,0,1-2.019-3.189v-8.8c0-1.291.9-1.957,2.019-1.487l22.513,9.486a4.975,4.975,0,0,1,2.719,4.293Z" transform="translate(0 -65.006)" fill="#1d1d19"></path><path id="Path_6040" data-name="Path 6040" d="M466.5,84.961V69.837c0-1.9-.266-5.928-.38-6.84h10.678c6.118,0,9.31,3.344,9.31,8.208,0,4.066-2.014,7.03-5.624,8.17,2.774,3.648,6.346,8.93,7.106,9.766v.532c-1.748,0-6.65.19-8.36.228l-5.738-9.994h-.152v2.926c0,1.71.3,6,.418,6.84-2.242,0-5.966.152-7.372.228.038-1.026.114-3.534.114-4.94m9.918-10.374a2.976,2.976,0,0,0,3.192-3.154,3.188,3.188,0,0,0-3.5-3.116h-2.775v6.27Z" transform="translate(-360.113 -48.67)" fill="#1d1d19"></path><path id="Path_6041" data-name="Path 6041" d="M570.719,62.222c2.546.038,4.712-.076,6.878-.228V77.422c0,3.953,1.634,5.776,4.218,5.776,2.432,0,4.1-1.824,4.1-5.586V62.222a59.306,59.306,0,0,0,6.878-.228V77.765c0,8.208-4.712,11.362-11.172,11.362-6.308,0-10.906-2.66-10.906-10.716Z" transform="translate(-440.927 -47.895)" fill="#1d1d19"></path><path id="Path_6042" data-name="Path 6042" d="M687.566,84.961V69.837c0-1.9-.266-5.928-.38-6.84h10.678c6.118,0,9.31,3.344,9.31,8.208,0,4.066-2.014,7.03-5.624,8.17,2.774,3.648,6.346,8.93,7.106,9.766v.532c-1.748,0-6.65.19-8.36.228l-5.738-9.994h-.152v2.926c0,1.71.3,6,.418,6.84-2.242,0-5.966.152-7.372.228.038-1.026.114-3.534.114-4.94m9.918-10.374a2.976,2.976,0,0,0,3.192-3.154,3.189,3.189,0,0,0-3.5-3.116h-2.774v6.27Z" transform="translate(-530.908 -48.67)" fill="#1d1d19"></path><path id="Path_6043" data-name="Path 6043" d="M801.143,89.772c-.494-1.748-1.026-3.5-1.52-5.282-1.6-.038-3.117-.038-4.522-.038s-2.66,0-3.572.038l-1.406,5.054c-2.584.038-4.94.114-7.524.228,2.736-7.562,7.03-20.748,9.006-26.942,1.406.038,2.774.076,4.18.076s2.812-.038,4.218-.076c3.838,12.5,7.068,21.47,8.968,26.714-2.584.038-5.206.114-7.828.228m-5.586-21.09-2.622,10.45c.646-.038,1.33-.038,1.976-.038,1.292,0,2.508.038,3.268.038Z" transform="translate(-604.622 -48.541)" fill="#1d1d19"></path><path id="Path_6044" data-name="Path 6044" d="M909.136,69.063c0-1.9-.266-5.928-.38-6.84l7.372-.228c-.076,1.634-.114,3.306-.114,4.94V83.466c1.368.038,2.66.038,3.99.038,2.09,0,4.142-.038,6.194-.152a22.845,22.845,0,0,0-.418,4.294c0,.456,0,.912.038,1.368-4.294-.152-7.942-.076-12.008-.076-2.356.038-4.674.19-4.788.19,0-.152.114-3.534.114-4.94Z" transform="translate(-702.089 -47.896)" fill="#1d1d19"></path><path id="Path_6045" data-name="Path 6045" d="M467.841,228.474V213.35c0-1.9-.266-5.928-.38-6.84h10.678c6.118,0,9.31,3.344,9.31,8.208,0,4.066-2.014,7.03-5.624,8.17,2.774,3.648,6.346,8.93,7.106,9.766v.532c-1.748,0-6.65.19-8.36.228l-5.738-9.994h-.152v2.926c0,1.71.3,6,.418,6.84-2.242,0-5.966.152-7.372.228.038-1.026.114-3.534.114-4.94m9.918-10.374a2.976,2.976,0,0,0,3.192-3.154,3.189,3.189,0,0,0-3.5-3.116h-2.774v6.27Z" transform="translate(-361.152 -159.546)" fill="#1d1d19"></path><path id="Path_6046" data-name="Path 6046" d="M577.161,232.64c-7.106,0-12.616-4.18-12.616-13.452,0-8.7,5.624-13.68,12.73-13.68,7.144,0,12.616,4.18,12.616,13.49,0,8.7-5.624,13.642-12.731,13.642m.076-21.584c-3.5,0-5.472,3.458-5.472,7.942,0,4.636,2.052,8.132,5.51,8.132s5.624-3.458,5.624-7.942c0-4.636-2.2-8.132-5.662-8.132" transform="translate(-436.157 -158.772)" fill="#1d1d19"></path><path id="Path_6047" data-name="Path 6047" d="M690.37,205.736c2.546.038,4.712-.076,6.878-.228v15.428c0,3.952,1.634,5.776,4.218,5.776,2.432,0,4.1-1.824,4.1-5.586V205.736a59.407,59.407,0,0,0,6.878-.228v15.77c0,8.208-4.712,11.362-11.172,11.362-6.308,0-10.906-2.66-10.906-10.716Z" transform="translate(-533.367 -158.772)" fill="#1d1d19"></path><path id="Path_6048" data-name="Path 6048" d="M806.84,212.575h-7.524a46.423,46.423,0,0,0,.266-6.232c5.054.152,17.594.114,21.888,0a55.733,55.733,0,0,0-.342,6.232c-1.71-.038-4.484,0-7.372,0v13.642c0,1.6.114,5.776.152,6.84-2.888,0-5.928.152-7.182.228.038-.95.114-3.534.114-4.94Z" transform="translate(-617.537 -159.417)" fill="#1d1d19"></path><path id="Path_6049" data-name="Path 6049" d="M907.307,213.54c0-1.9-.266-6.118-.38-7.03h18.544a47.593,47.593,0,0,0-.418,5.738,70.282,70.282,0,0,0-7.068-.19l-3.8.076v4.9c2.85,0,5.662,0,9.006-.152a28.249,28.249,0,0,0,0,5.852c-1.6-.076-3.116-.114-4.6-.114s-2.964.038-4.408.076v5.016c1.824.038,3.61.076,5.358.076,1.938,0,3.876-.038,5.814-.152a22.847,22.847,0,0,0-.342,4.294c0,.456,0,.836.038,1.292q-3.363-.114-6.726-.114c-3.724,0-7.334-.038-11.172.228.076-.8.152-3.268.152-4.674Z" transform="translate(-700.676 -159.546)" fill="#1d1d19"></path><path id="Path_6050" data-name="Path 6050" d="M25.284,44.8l-15.2,5.572a.461.461,0,0,0-.013.838L53.087,68.795l16.237-6.637Z" transform="translate(-7.576 -34.612)" fill="#dbb01d"></path><path id="Path_6051" data-name="Path 6051" d="M197.355,15.76,154.349,0,140.876,4.937l44.11,16.722L197.368,16.6a.461.461,0,0,0-.013-.839" transform="translate(-108.838)" fill="#dbb01d"></path><path id="Path_6052" data-name="Path 6052" d="M250.154,107.835a6.707,6.707,0,0,0,1.085-3.488V86.668c0-1.992-1.4-3.02-3.117-2.294l-12.276,5.172v4.907l-13.758,5.858V95.343l-12.437,5.24a5.7,5.7,0,0,0-3.116,4.921v52.948l8.726-3.677V134.822a4.571,4.571,0,0,1,2.5-3.945l21.559-9.084c1.764-.743,3.194.31,3.194,2.352v19.148l8.727-3.677v-21.63a3.093,3.093,0,0,0-1.085-2.574l-2.478-1.824c-.439-.323-.439-1.148,0-1.841Zm-7.642-.667a4.975,4.975,0,0,1-2.719,4.293l-22.513,9.486c-1.115.47-2.019-.2-2.019-1.487v-8.8a3.694,3.694,0,0,1,2.019-3.188l22.513-9.486c1.5-.633,2.719.263,2.719,2Z" transform="translate(-159.564 -65.006)" fill="#1d1d19"></path><path id="Path_6053" data-name="Path 6053" d="M467.545,356.323c0-.452-.063-1.411-.091-1.629H470a1.962,1.962,0,0,1,2.216,2.045A2.052,2.052,0,0,1,470,358.9h-.823v.516c0,.407.072,1.429.1,1.628-.7,0-1.728.054-1.755.054.009-.407.027-.841.027-1.176Zm2.361,1.312a.78.78,0,0,0,.76-.841.8.8,0,0,0-.832-.832h-.66v1.674Z" transform="translate(-361.147 -274.03)" fill="#dbb01d"></path><path id="Path_6054" data-name="Path 6054" d="M496.375,361.07c-.118-.416-.244-.832-.362-1.257-.38-.009-.742-.009-1.077-.009s-.633,0-.85.009l-.335,1.2c-.615.009-1.176.027-1.791.054.651-1.8,1.674-4.94,2.144-6.414.335.009.661.018,1,.018s.67-.009,1-.018c.914,2.976,1.683,5.111,2.135,6.36-.615.009-1.239.027-1.863.054m-1.33-5.021-.624,2.488c.154-.009.317-.009.47-.009.308,0,.6.009.778.009Z" transform="translate(-380.079 -274.001)" fill="#dbb01d"></path><path id="Path_6055" data-name="Path 6055" d="M528.748,354.456a4.081,4.081,0,0,1,1.873.416,7.321,7.321,0,0,0-.488,1.375l-.054.018a1.956,1.956,0,0,0-1.2-.371,1.587,1.587,0,0,0-1.638,1.782,1.608,1.608,0,0,0,1.683,1.827,2.681,2.681,0,0,0,1.285-.326,3.481,3.481,0,0,0,.416,1.194,3.333,3.333,0,0,1-1.945.543,2.847,2.847,0,0,1-3.139-3.121,3.042,3.042,0,0,1,3.211-3.338" transform="translate(-406.02 -273.846)" fill="#dbb01d"></path><path id="Path_6056" data-name="Path 6056" d="M556.936,356.14c0-.452-.063-1.411-.09-1.629.66,0,1.61-.054,1.755-.054-.009.235-.027.841-.027,1.176V357.4c.443-.66,1.665-2.479,1.864-2.886.633,0,1.276.018,1.909-.036v.063l-2.135,2.985c.317.452,1.656,2.388,2.271,3.212v.127c-.416,0-1.375.036-1.9.054-.5-.751-1.511-2.271-2.008-3.031v1.348c0,.453.054,1.411.082,1.629-.7,0-1.719.054-1.746.054,0-.018.027-.841.027-1.176Z" transform="translate(-430.209 -273.847)" fill="#dbb01d"></path><path id="Path_6057" data-name="Path 6057" d="M591.614,361.07c-.118-.416-.244-.832-.362-1.257-.38-.009-.742-.009-1.077-.009s-.633,0-.85.009l-.335,1.2c-.615.009-1.176.027-1.791.054.651-1.8,1.674-4.94,2.144-6.414.335.009.661.018,1,.018s.67-.009,1-.018c.914,2.976,1.683,5.111,2.135,6.36-.615.009-1.239.027-1.863.054m-1.33-5.021-.624,2.488c.154-.009.317-.009.47-.009.308,0,.6.009.778.009Z" transform="translate(-453.659 -274.001)" fill="#dbb01d"></path><path id="Path_6058" data-name="Path 6058" d="M624.339,359.613h.208c-.009-.669-.063-1.475-.081-1.664.688,0,1.7-.036,1.746-.055-.018.172-.027.742-.027,1.267,0,.705,0,1.058.027,1.275a5.217,5.217,0,0,1-2.226.48,2.925,2.925,0,0,1-3.211-3.121,3.111,3.111,0,0,1,3.3-3.338,4.479,4.479,0,0,1,1.963.416,7.085,7.085,0,0,0-.489,1.375l-.054.018a2.314,2.314,0,0,0-1.357-.362,1.693,1.693,0,0,0-1.655,1.864,1.63,1.63,0,0,0,1.854,1.845" transform="translate(-479.6 -273.846)" fill="#dbb01d"></path><path id="Path_6059" data-name="Path 6059" d="M654.084,356.369c0-.452-.063-1.456-.09-1.674h4.415a11.291,11.291,0,0,0-.1,1.366,16.773,16.773,0,0,0-1.683-.045l-.9.018V357.2c.679,0,1.348,0,2.144-.036a6.731,6.731,0,0,0,0,1.393c-.38-.018-.742-.027-1.095-.027s-.705.009-1.049.018v1.194c.434.009.859.018,1.276.018.461,0,.922-.009,1.384-.036a5.428,5.428,0,0,0-.082,1.022c0,.108,0,.2.009.307q-.8-.027-1.6-.027c-.886,0-1.746-.009-2.66.054.018-.19.036-.778.036-1.113Z" transform="translate(-505.264 -274.031)" fill="#dbb01d"></path><path id="Path_6060" data-name="Path 6060" d="M694.343,356.323c0-.452-.063-1.411-.09-1.629h2.542a1.962,1.962,0,0,1,2.217,2.045,2.052,2.052,0,0,1-2.217,2.162h-.823v.516c0,.407.073,1.429.1,1.628-.7,0-1.728.054-1.755.054.009-.407.027-.841.027-1.176Zm2.361,1.312a.78.78,0,0,0,.76-.841.8.8,0,0,0-.832-.832h-.661v1.674Z" transform="translate(-536.367 -274.03)" fill="#dbb01d"></path><path id="Path_6061" data-name="Path 6061" d="M724.862,359.233c0,.452.072,1.411.1,1.628-.579,0-1.167.027-1.755.054.009-.1.018-.841.018-1.176v-3.6c0-.453-.063-1.412-.091-1.629.588,0,1.167-.018,1.764-.054,0,.1-.036.841-.036,1.176Z" transform="translate(-558.68 -273.846)" fill="#dbb01d"></path><path id="Path_6062" data-name="Path 6062" d="M743.134,354.456a4.081,4.081,0,0,1,1.873.416,7.339,7.339,0,0,0-.488,1.375l-.054.018a1.957,1.957,0,0,0-1.2-.371,1.587,1.587,0,0,0-1.638,1.782,1.608,1.608,0,0,0,1.682,1.827,2.682,2.682,0,0,0,1.285-.326,3.477,3.477,0,0,0,.416,1.194,3.333,3.333,0,0,1-1.945.543,2.847,2.847,0,0,1-3.139-3.121,3.042,3.042,0,0,1,3.211-3.338" transform="translate(-571.651 -273.846)" fill="#dbb01d"></path><path id="Path_6063" data-name="Path 6063" d="M771.321,356.14c0-.452-.063-1.411-.09-1.629.66,0,1.61-.054,1.755-.054-.009.235-.027.841-.027,1.176V357.4c.443-.66,1.665-2.479,1.864-2.886.633,0,1.276.018,1.909-.036v.063l-2.135,2.985c.317.452,1.656,2.388,2.271,3.212v.127c-.416,0-1.375.036-1.9.054-.5-.751-1.511-2.271-2.008-3.031v1.348c0,.453.054,1.411.082,1.629-.7,0-1.719.054-1.746.054,0-.018.027-.841.027-1.176Z" transform="translate(-595.839 -273.847)" fill="#dbb01d"></path><rect id="Rectangle_91" data-name="Rectangle 91" width="2.614" height="1.104" transform="translate(182.883 83.025)" fill="#dbb01d"></rect><path id="Path_6064" data-name="Path 6064" d="M826.011,354.511c.606.009,1.122-.018,1.637-.054v3.673c0,.941.389,1.375,1,1.375.579,0,.977-.434.977-1.33v-3.664a14.119,14.119,0,0,0,1.637-.054v3.754a2.4,2.4,0,0,1-2.659,2.7,2.275,2.275,0,0,1-2.6-2.551Z" transform="translate(-638.161 -273.847)" fill="#dbb01d"></path><path id="Path_6065" data-name="Path 6065" d="M859.16,356.323c0-.452-.063-1.411-.09-1.629h2.542a1.962,1.962,0,0,1,2.217,2.045,2.052,2.052,0,0,1-2.217,2.162h-.823v.516c0,.407.073,1.429.1,1.628-.7,0-1.728.054-1.755.054.009-.407.027-.841.027-1.176Zm2.361,1.312a.78.78,0,0,0,.76-.841.8.8,0,0,0-.832-.832h-.661v1.674Z" transform="translate(-663.702 -274.03)" fill="#dbb01d"></path><path id="Path_6066" data-name="Path 6066" d="M902.011,359.233c0,.452.072,1.411.1,1.628-.579,0-1.167.027-1.755.054.009-.1.018-.841.018-1.176v-3.6c0-.453-.063-1.412-.091-1.629.588,0,1.167-.018,1.764-.054,0,.1-.036.841-.036,1.176Z" transform="translate(-695.543 -273.846)" fill="#dbb01d"></path><path id="Path_6067" data-name="Path 6067" d="M918.356,356.14c0-.452-.063-1.411-.09-1.629.688,0,1.456-.045,1.755-.054l2.551,4.125-.081-2.452c-.018-.452-.063-1.411-.091-1.628.688,0,1.592-.045,1.764-.045-.009.181-.027.832-.027,1.167v3.6c0,.453.027,1.42.054,1.638l-1.927.054c-.57-1.167-1.592-2.678-2.271-3.782v2.1c0,.453.073,1.411.1,1.629-.7,0-1.448.036-1.764.054.009-.317.027-.841.027-1.176Z" transform="translate(-709.436 -273.847)" fill="#dbb01d"></path><path id="Path_6068" data-name="Path 6068" d="M956.286,354.456a4.081,4.081,0,0,1,1.873.416,7.316,7.316,0,0,0-.488,1.375l-.054.018a1.957,1.957,0,0,0-1.2-.371,1.587,1.587,0,0,0-1.638,1.782,1.608,1.608,0,0,0,1.683,1.827,2.682,2.682,0,0,0,1.285-.326,3.481,3.481,0,0,0,.416,1.194,3.333,3.333,0,0,1-1.945.543,2.847,2.847,0,0,1-3.139-3.121,3.042,3.042,0,0,1,3.211-3.338" transform="translate(-736.329 -273.846)" fill="#dbb01d"></path><path id="Path_6069" data-name="Path 6069" d="M983.19,376.887a.832.832,0,0,1,1.655,0,.829.829,0,0,1-1.655,0" transform="translate(-759.595 -290.596)" fill="#dbb01d"></path></g></svg>